<?xml version="1.0" encoding="utf-8"?>
<!DOCTYPE svg PUBLIC "-//W3C//DTD SVG 1.1//EN" "http://www.w3.org/Graphics/SVG/1.1/DTD/svg11.dtd">
<svg version="1.1" xmlns="http://www.w3.org/2000/svg" xmlns:xlink="http://www.w3.org/1999/xlink" x="0px" y="0px" viewBox="0 0 1000 1000" enable-background="new 0 0 1000 1000" xml:space="preserve">
<g><path d="M285,607.2h-90.2L116.5,990h767L812,606h-91.5l-24.6,43.8h72.6l61,297H170.7l57.8-298.5h82.2L285,607.2z M502.7,752.9c109.5-145.7,246.5-357.8,246.5-448.7C749.2,173.4,638.6,67,502.7,67c-135.9,0-246.5,106.4-246.5,237.2C256.2,395,393.1,607.1,502.7,752.9 M499.6,122c102.5,0,186,81.7,186,182.2c0,100.5-83.4,182.2-186,182.2c-102.5,0-186-81.7-186-182.2C313.6,203.7,397,122,499.6,122 M502.8,845.9L502.8,845.9L502.8,845.9z M502.7,845.8c0,0-303.3-379.1-303.3-541.6C199.3,141.7,335.1,10,502.7,10C670.2,10,806,141.7,806,304.2C806,466.7,502.7,845.8,502.7,845.8L502.7,845.8L502.7,845.8L502.7,845.8z M499.6,178.9c-71.3,0-129.1,56.1-129.1,125.2c0,69.2,57.8,125.2,129.1,125.2c71.3,0,129.1-56.1,129.1-125.2C628.7,235,570.9,178.9,499.6,178.9L499.6,178.9L499.6,178.9L499.6,178.9z"/></g>
</svg>